# xmcd
#
# Track frame offsets: 
#        150
#        13377
#        29033
#        44642
#        57329
#        70803
#        85053
#        106217
#        118873
#        131206
#        144764
#        156442
#        169795
#        185087
#        197735
#        210324
#        221395
#        234787
#        248251
#        262479
#
# Disc length: 3774 seconds
#
# Revision: 0
# Processed by: cddbd v1.5.2PL0 Copyright (c) Steve Scherf et al.
# Submitted via: ExactAudioCopy v0.99pb5
#
DISCID=290ebc14
DTITLE=Various Artist - Listening to Blues
DYEAR=1900
DGENRE=Blues
TTITLE0=Jimmy Rushing and Count Basie - Baby don't tell on me
TTITLE1=Hot Lips Page - Double Trouble Blues
TTITLE2=Jimmy Rushing and Count Basie - Goin'To Chicago Blues
TTITLE3=Muddy Waters - Train Fare Home
TTITLE4=Lightnin'Hopkins - Hello Central
TTITLE5=T-Bone Walker - So Blue Blues
TTITLE6=Jimmy Rushing and Count Basie - Harvard Blues
TTITLE7=Cousin Joe - You Ain't so much a much
TTITLE8=Cousin Joe - Bachelorr's Blues
TTITLE9=Hot Lips Page - The Lady in Bed
TTITLE10=Big Bill Broonzy - Just a Dream
TTITLE11=Sonny Boy Williamson - Stop Breaking Down
TTITLE12=Washboard Sam - I'm not The Lad
TTITLE13=Eddie Cleanhead Vinson - Railroad Porter Blues
TTITLE14=Leroy Carr - How Long How Long Blues N.2
TTITLE15=Big Joe Turner - Nobody in Mind
TTITLE16=Big Maceo - Worried Life Blues
TTITLE17=Big Bill Broonzy - Stump Blues
TTITLE18=Bessie Smith - Saint Louis Blues
TTITLE19=Albert Ammons - Bottom Blues
EXTD=
EXTT0=
EXTT1=
EXTT2=
EXTT3=
EXTT4=
EXTT5=
EXTT6=
EXTT7=
EXTT8=
EXTT9=
EXTT10=
EXTT11=
EXTT12=
EXTT13=
EXTT14=
EXTT15=
EXTT16=
EXTT17=
EXTT18=
EXTT19=
PLAYORDER=
